<svg width="40" height="40" viewBox="0 0 40 40" fill="none" xmlns="http://www.w3.org/2000/svg">
<g clip-path="url(#clip0_7427_1235)">
<path d="M16.6665 3.33357C16.6665 1.8669 18.4265 1.11524 19.4865 2.13024C22.7498 5.2569 24.6465 12.1219 22.4032 17.3302L22.2698 17.6202L22.2898 17.6252C23.3315 17.8469 24.2948 16.9086 26.1282 14.0036L26.3615 13.6302C26.4967 13.4126 26.6803 13.229 26.898 13.0938C27.1158 12.9586 27.3617 12.8755 27.6168 12.8508C27.8719 12.8261 28.1292 12.8606 28.3688 12.9516C28.6084 13.0425 28.8237 13.1875 28.9982 13.3752C31.2215 15.7669 33.3332 20.6702 33.3332 23.8252C33.3332 30.9336 27.3482 36.6669 19.9998 36.6669C12.6515 36.6669 6.6665 30.9336 6.6665 23.8236C6.6665 20.0702 8.36984 15.9636 11.0532 13.3219L12.0615 12.3402C12.4632 11.9469 12.7848 11.6236 13.0915 11.3002C15.4748 8.78024 16.6665 6.4269 16.6665 3.33357Z" fill="url(#paint0_linear_7427_1235)"/>
</g>
<defs>
<linearGradient id="paint0_linear_7427_1235" x1="6.49983" y1="2.00024" x2="33.4998" y2="37.0002" gradientUnits="userSpaceOnUse">
<stop stop-color="#CB1CC0"/>
<stop offset="1" stop-color="#B2FE00"/>
</linearGradient>
<clipPath id="clip0_7427_1235">
<rect width="40" height="40" fill="white"/>
</clipPath>
</defs>
</svg>
