<svg width="24" height="24" viewBox="0 0 24 24" fill="none" xmlns="http://www.w3.org/2000/svg">
<g clip-path="url(#clip0_4297_1557)">
<path d="M10 2C10 1.12 11.056 0.668996 11.692 1.278C13.65 3.154 14.788 7.27299 13.442 10.398L13.362 10.572L13.374 10.575C13.999 10.708 14.577 10.145 15.677 8.402L15.817 8.178C15.8981 8.04739 16.0083 7.93725 16.1389 7.85614C16.2696 7.77503 16.4171 7.72514 16.5702 7.71034C16.7232 7.69553 16.8776 7.71622 17.0214 7.7708C17.1651 7.82537 17.2943 7.91236 17.399 8.025C18.733 9.46 20 12.402 20 14.295C20 18.56 16.409 22 12 22C7.591 22 4 18.56 4 14.294C4 12.042 5.022 9.578 6.632 7.993L7.237 7.404C7.478 7.168 7.671 6.974 7.855 6.78C9.285 5.268 10 3.856 10 2Z" fill="url(#paint0_linear_4297_1557)"/>
</g>
<defs>
<linearGradient id="paint0_linear_4297_1557" x1="3.9" y1="1.2" x2="20.1" y2="22.2" gradientUnits="userSpaceOnUse">
<stop stop-color="#E90063"/>
<stop offset="1" stop-color="#FF8820"/>
</linearGradient>
<clipPath id="clip0_4297_1557">
<rect width="24" height="24" fill="white"/>
</clipPath>
</defs>
</svg>
