<svg width="40" height="40" viewBox="0 0 40 40" fill="none" xmlns="http://www.w3.org/2000/svg">
<g clip-path="url(#clip0_7445_1018)">
<path d="M20.0412 17.4209L17.4138 22.159L15.9429 21.2587L16.8955 24.8654H23.1871L24.1397 21.2586L22.6687 22.159L20.0412 17.4209Z" fill="#B2FE00"/>
<path d="M27.1602 7.83283C25.0602 5.62283 21.5144 4.16699 17.5002 4.16699C17.0394 4.16699 16.6669 4.54033 16.6669 5.00033V9.40116C13.9119 10.7487 11.4636 12.652 9.6769 14.5687C7.99856 10.8653 4.66689 8.33366 0.833561 8.33366C0.569395 8.33366 0.320228 8.45866 0.162728 8.67199C0.00522799 8.88533 -0.0406054 9.15949 0.0368946 9.41199L3.29523 20.0003L0.0368946 30.5887C-0.0406054 30.8412 0.00606132 31.1162 0.162728 31.3287C0.319395 31.5412 0.569395 31.667 0.833561 31.667C4.66773 31.667 8.00023 29.1337 9.67773 25.4287C11.8177 27.7262 14.9052 30.0045 18.3336 31.3295V35.0003C18.3336 35.4603 18.7061 35.8337 19.1669 35.8337C21.9352 35.8337 24.3852 34.4712 25.9019 32.3878C34.0144 31.3587 40.0002 23.3878 40.0002 20.0003C40.0002 16.7903 34.6252 9.46949 27.1602 7.83283ZM29.7786 28.067C29.4661 28.4037 28.9386 28.4245 28.6011 28.112C26.2786 25.9628 25.0002 23.082 25.0002 20.0003C25.0002 16.9195 26.2752 14.0395 28.5919 11.8895C28.9302 11.5762 29.4561 11.5953 29.7702 11.9337C30.0827 12.2712 30.0636 12.7987 29.7261 13.1112C27.7536 14.942 26.6669 17.3887 26.6669 20.0003C26.6669 22.612 27.7561 25.0587 29.7336 26.8887C30.0711 27.2028 30.0919 27.7287 29.7786 28.067ZM34.1669 19.167C33.7069 19.167 33.3336 18.7937 33.3336 18.3337C33.3336 17.8737 33.7069 17.5003 34.1669 17.5003C34.6269 17.5003 35.0002 17.8737 35.0002 18.3337C35.0002 18.7937 34.6269 19.167 34.1669 19.167Z" fill="#B2FE00"/>
</g>
<defs>
<clipPath id="clip0_7445_1018">
<rect width="40" height="40" fill="white"/>
</clipPath>
</defs>
</svg>
