<svg width="24" height="24" viewBox="0 0 24 24" fill="none" xmlns="http://www.w3.org/2000/svg">
<path d="M15.5 8H13V4C13 3.73478 12.8946 3.48043 12.7071 3.29289C12.5196 3.10536 12.2652 3 12 3C11.7348 3 11.4804 3.10536 11.2929 3.29289C11.1054 3.48043 11 3.73478 11 4V8H8.5C6.77609 8 5.12279 8.68482 3.90381 9.90381C2.68482 11.1228 2 12.7761 2 14.5C2 16.2239 2.68482 17.8772 3.90381 19.0962C5.12279 20.3152 6.77609 21 8.5 21H15.5C17.2239 21 18.8772 20.3152 20.0962 19.0962C21.3152 17.8772 22 16.2239 22 14.5C22 12.7761 21.3152 11.1228 20.0962 9.90381C18.8772 8.68482 17.2239 8 15.5 8ZM10 15.5H9V16.5C9 16.7652 8.89464 17.0196 8.70711 17.2071C8.51957 17.3946 8.26522 17.5 8 17.5C7.73478 17.5 7.48043 17.3946 7.29289 17.2071C7.10536 17.0196 7 16.7652 7 16.5V15.5H6C5.73478 15.5 5.48043 15.3946 5.29289 15.2071C5.10536 15.0196 5 14.7652 5 14.5C5 14.2348 5.10536 13.9804 5.29289 13.7929C5.48043 13.6054 5.73478 13.5 6 13.5H7V12.5C7 12.2348 7.10536 11.9804 7.29289 11.7929C7.48043 11.6054 7.73478 11.5 8 11.5C8.26522 11.5 8.51957 11.6054 8.70711 11.7929C8.89464 11.9804 9 12.2348 9 12.5V13.5H10C10.2652 13.5 10.5196 13.6054 10.7071 13.7929C10.8946 13.9804 11 14.2348 11 14.5C11 14.7652 10.8946 15.0196 10.7071 15.2071C10.5196 15.3946 10.2652 15.5 10 15.5ZM16 17C15.8022 17 15.6089 16.9414 15.4444 16.8315C15.28 16.7216 15.1518 16.5654 15.0761 16.3827C15.0004 16.2 14.9806 15.9989 15.0192 15.8049C15.0578 15.6109 15.153 15.4327 15.2929 15.2929C15.4327 15.153 15.6109 15.0578 15.8049 15.0192C15.9989 14.9806 16.2 15.0004 16.3827 15.0761C16.5654 15.1518 16.7216 15.28 16.8315 15.4444C16.9414 15.6089 17 15.8022 17 16C17 16.2652 16.8946 16.5196 16.7071 16.7071C16.5196 16.8946 16.2652 17 16 17ZM18 14C17.8022 14 17.6089 13.9414 17.4444 13.8315C17.28 13.7216 17.1518 13.5654 17.0761 13.3827C17.0004 13.2 16.9806 12.9989 17.0192 12.8049C17.0578 12.6109 17.153 12.4327 17.2929 12.2929C17.4327 12.153 17.6109 12.0578 17.8049 12.0192C17.9989 11.9806 18.2 12.0004 18.3827 12.0761C18.5654 12.1518 18.7216 12.28 18.8315 12.4444C18.9414 12.6089 19 12.8022 19 13C19 13.2652 18.8946 13.5196 18.7071 13.7071C18.5196 13.8946 18.2652 14 18 14Z" fill="url(#paint0_linear_4297_1577)"/>
<defs>
<linearGradient id="paint0_linear_4297_1577" x1="21.8572" y1="12" x2="2.14287" y2="12" gradientUnits="userSpaceOnUse">
<stop stop-color="#E90063"/>
<stop offset="0.76" stop-color="#FF8820"/>
</linearGradient>
</defs>
</svg>
