<svg width="24" height="25" viewBox="0 0 24 25" fill="none" xmlns="http://www.w3.org/2000/svg">
<g filter="url(#filter0_d_4332_2116)">
<path d="M9 15L15 9" stroke="white" stroke-width="2" stroke-linecap="round" stroke-linejoin="round" shape-rendering="crispEdges"/>
</g>
<g filter="url(#filter1_d_4332_2116)">
<path d="M11 5.99994L11.463 5.46394C12.4008 4.52627 13.6727 3.99954 14.9989 3.99963C16.325 3.99973 17.5968 4.52663 18.5345 5.46444C19.4722 6.40224 19.9989 7.67413 19.9988 9.00029C19.9987 10.3265 19.4718 11.5983 18.534 12.5359L18 12.9999" stroke="white" stroke-width="2" stroke-linecap="round" stroke-linejoin="round" shape-rendering="crispEdges"/>
</g>
<g filter="url(#filter2_d_4332_2116)">
<path d="M13.0001 18L12.6031 18.534C11.6544 19.4722 10.3739 19.9984 9.03964 19.9984C7.70535 19.9984 6.42489 19.4722 5.47614 18.534C5.0085 18.0716 4.63724 17.521 4.38385 16.9141C4.13047 16.3073 4 15.6561 4 14.9985C4 14.3408 4.13047 13.6897 4.38385 13.0829C4.63724 12.476 5.0085 11.9254 5.47614 11.463L6.00014 11" stroke="white" stroke-width="2" stroke-linecap="round" stroke-linejoin="round" shape-rendering="crispEdges"/>
</g>
<defs>
<filter id="filter0_d_4332_2116" x="5" y="6" width="14" height="14" filterUnits="userSpaceOnUse" color-interpolation-filters="sRGB">
<feFlood flood-opacity="0" result="BackgroundImageFix"/>
<feColorMatrix in="SourceAlpha" type="matrix" values="0 0 0 0 0 0 0 0 0 0 0 0 0 0 0 0 0 0 127 0" result="hardAlpha"/>
<feOffset dy="1"/>
<feGaussianBlur stdDeviation="1.5"/>
<feComposite in2="hardAlpha" operator="out"/>
<feColorMatrix type="matrix" values="0 0 0 0 1 0 0 0 0 1 0 0 0 0 1 0 0 0 0.25 0"/>
<feBlend mode="normal" in2="BackgroundImageFix" result="effect1_dropShadow_4332_2116"/>
<feBlend mode="normal" in="SourceGraphic" in2="effect1_dropShadow_4332_2116" result="shape"/>
</filter>
<filter id="filter1_d_4332_2116" x="7" y="0.999634" width="16.999" height="17.0004" filterUnits="userSpaceOnUse" color-interpolation-filters="sRGB">
<feFlood flood-opacity="0" result="BackgroundImageFix"/>
<feColorMatrix in="SourceAlpha" type="matrix" values="0 0 0 0 0 0 0 0 0 0 0 0 0 0 0 0 0 0 127 0" result="hardAlpha"/>
<feOffset dy="1"/>
<feGaussianBlur stdDeviation="1.5"/>
<feComposite in2="hardAlpha" operator="out"/>
<feColorMatrix type="matrix" values="0 0 0 0 1 0 0 0 0 1 0 0 0 0 1 0 0 0 0.25 0"/>
<feBlend mode="normal" in2="BackgroundImageFix" result="effect1_dropShadow_4332_2116"/>
<feBlend mode="normal" in="SourceGraphic" in2="effect1_dropShadow_4332_2116" result="shape"/>
</filter>
<filter id="filter2_d_4332_2116" x="0" y="8" width="17" height="16.9984" filterUnits="userSpaceOnUse" color-interpolation-filters="sRGB">
<feFlood flood-opacity="0" result="BackgroundImageFix"/>
<feColorMatrix in="SourceAlpha" type="matrix" values="0 0 0 0 0 0 0 0 0 0 0 0 0 0 0 0 0 0 127 0" result="hardAlpha"/>
<feOffset dy="1"/>
<feGaussianBlur stdDeviation="1.5"/>
<feComposite in2="hardAlpha" operator="out"/>
<feColorMatrix type="matrix" values="0 0 0 0 1 0 0 0 0 1 0 0 0 0 1 0 0 0 0.25 0"/>
<feBlend mode="normal" in2="BackgroundImageFix" result="effect1_dropShadow_4332_2116"/>
<feBlend mode="normal" in="SourceGraphic" in2="effect1_dropShadow_4332_2116" result="shape"/>
</filter>
</defs>
</svg>
