<svg width="40" height="40" viewBox="0 0 40 40" fill="none" xmlns="http://www.w3.org/2000/svg">
<g clip-path="url(#clip0_7445_1109)">
<path d="M35.7131 12.8897C35.4849 13.1244 35.173 13.2547 34.8501 13.2547C34.797 13.2547 34.7436 13.251 34.6905 13.244L31.556 12.825C32.8549 14.9093 33.6065 17.3684 33.6065 20C33.6065 27.5027 27.5027 33.6068 20 33.6068C12.4972 33.6068 6.39342 27.5027 6.39342 20C6.39342 12.4972 12.4972 6.39342 20 6.39342C22.6355 6.39342 25.0976 7.1472 27.1838 8.44938L26.6912 5.50261C26.6281 5.1245 26.7486 4.73876 27.0162 4.46441L29.1946 2.22961C26.3876 0.773009 23.2534 0 20 0C14.6579 0 9.6353 2.08038 5.85784 5.85784C2.08038 9.6353 0 14.6579 0 20C0 25.3421 2.08038 30.3646 5.85784 34.1421C9.6353 37.9195 14.6579 39.9999 20 39.9999C25.3424 39.9999 30.3646 37.9195 34.1421 34.1421C37.9195 30.3646 39.9999 25.3421 39.9999 20C39.9999 16.7379 39.2229 13.5959 37.759 10.7831L35.7131 12.8897Z" fill="#B2FE00"/>
<path d="M20.0001 21.2031C19.6894 21.2031 19.3787 21.0835 19.1431 20.8445C18.6768 20.3715 18.682 19.6095 19.1553 19.1429L22.1766 16.1644C21.5336 15.7982 20.7911 15.5879 20.0001 15.5879C17.5672 15.5879 15.5881 17.567 15.5881 19.9998C15.5881 22.4327 17.5672 24.4117 20.0001 24.4117C22.4329 24.4117 24.412 22.4327 24.412 19.9998C24.412 19.2311 24.2136 18.5075 23.8666 17.8773L20.8448 20.8567C20.6104 21.0878 20.3052 21.2031 20.0001 21.2031Z" fill="#B2FE00"/>
<path d="M25.6217 16.1472C26.3758 17.2443 26.8183 18.5712 26.8183 20C26.8183 23.7598 23.7598 26.8183 20 26.8183C16.2403 26.8183 13.1818 23.7598 13.1818 20C13.1818 16.2403 16.2403 13.1818 20 13.1818C21.4634 13.1818 22.8192 13.6466 23.9313 14.4343L27.0813 11.3288C25.1502 9.7489 22.6841 8.7998 20 8.7998C13.8242 8.7998 8.7998 13.8242 8.7998 20C8.7998 26.1759 13.8242 31.2003 20 31.2003C26.1759 31.2003 31.2003 26.1759 31.2003 20C31.2003 17.3731 30.2908 14.9546 28.7708 13.0423L25.6217 16.1472Z" fill="#B2FE00"/>
<path d="M33.1817 7.84954C32.6583 7.77935 32.2418 7.37621 32.1548 6.85558L31.5524 3.25879L29.1653 5.70782L29.9127 10.178L34.4088 10.7789L36.7855 8.33172L33.1817 7.84954Z" fill="#B2FE00"/>
</g>
<defs>
<clipPath id="clip0_7445_1109">
<rect width="40" height="40" fill="white"/>
</clipPath>
</defs>
</svg>
