<svg width="40" height="40" viewBox="0 0 40 40" fill="none" xmlns="http://www.w3.org/2000/svg">
<g clip-path="url(#clip0_7445_1029)">
<path d="M20.0412 17.4209L17.4138 22.159L15.9429 21.2587L16.8955 24.8654H23.1871L24.1397 21.2586L22.6687 22.159L20.0412 17.4209Z" fill="#B2FE00"/>
<path d="M20.0001 7.91309C13.3353 7.91309 7.91309 13.3353 7.91309 20.0001C7.91309 26.665 13.3354 32.0872 20.0001 32.0872C26.6649 32.0872 32.0871 26.665 32.0871 20.0001C32.0871 13.3353 26.665 7.91309 20.0001 7.91309ZM27.2872 18.8322C27.2597 18.8322 27.2325 18.8314 27.2053 18.8301L24.9922 27.2089H15.0905L12.876 18.8245C12.8222 18.8293 12.768 18.8321 12.7131 18.8321C11.7084 18.8321 10.8911 18.0148 10.8911 17.0101C10.8911 16.0055 11.7084 15.1882 12.7131 15.1882C13.7178 15.1882 14.5351 16.0055 14.5351 17.0101C14.5351 17.2131 14.5013 17.4082 14.4397 17.5907L16.5507 18.8826L18.8977 14.6501C18.4843 14.3158 18.2193 13.805 18.2193 13.2332C18.2193 12.2286 19.0367 11.4112 20.0414 11.4112C21.0461 11.4112 21.8634 12.2286 21.8634 13.2332C21.8634 13.805 21.5983 14.316 21.1849 14.6503L23.532 18.8826L25.5747 17.6325C25.5039 17.4382 25.4652 17.2286 25.4652 17.0101C25.4652 16.0055 26.2825 15.1882 27.2872 15.1882C28.2919 15.1882 29.1093 16.0055 29.1093 17.0101C29.1093 18.0149 28.2919 18.8322 27.2872 18.8322Z" fill="#B2FE00"/>
<path d="M34.1422 5.85781C30.3646 2.08039 25.3422 0 20 0C14.6578 0 9.63539 2.08039 5.85781 5.85781C2.08039 9.63539 0 14.6578 0 20C0 25.3422 2.08039 30.3646 5.85781 34.1422C9.63539 37.9196 14.6578 40 20 40C25.3422 40 30.3646 37.9196 34.1422 34.1422C37.9196 30.3646 40 25.3422 40 20C40 14.6578 37.9196 9.63539 34.1422 5.85781ZM20 34.4309C12.0428 34.4309 5.56922 27.9573 5.56922 20C5.56922 12.0428 12.0428 5.56922 20 5.56922C27.9572 5.56922 34.4308 12.0428 34.4308 20C34.4308 27.9573 27.9572 34.4309 20 34.4309Z" fill="#B2FE00"/>
</g>
<defs>
<clipPath id="clip0_7445_1029">
<rect width="40" height="40" fill="white"/>
</clipPath>
</defs>
</svg>
