<svg width="20" height="20" viewBox="0 0 20 20" fill="none" xmlns="http://www.w3.org/2000/svg">
<path fill-rule="evenodd" clip-rule="evenodd" d="M2 10C2 5.58172 5.58172 2 10 2C14.4183 2 18 5.58172 18 10C18 14.4183 14.4183 18 10 18C8.44782 18 7.00172 17.559 5.77664 16.7958L5.42699 16.578L5.02538 16.6696L2.85215 17.1657L3.36519 15.0478L3.4651 14.6353L3.23787 14.2769C2.454 13.0405 2 11.5748 2 10ZM10 0C4.47715 0 0 4.47715 0 10C0 11.8102 0.481843 13.5104 1.32457 14.9767L0.528109 18.2646L0.147846 19.8343L1.72252 19.4749L5.08107 18.7084C6.53417 19.5307 8.21358 20 10 20C15.5228 20 20 15.5228 20 10C20 4.47715 15.5228 0 10 0ZM15.0001 14C13 16 9.95244 14.8282 7.5 12.5C5.21304 10.0915 3.99998 7 6.00002 5H8.00007L9.00007 7.5L7.5 8.5C7.5 8.5 7.78094 9.62929 9.07222 10.9166C10.3635 12.204 11.5 12.5 11.5 12.5L12.5001 11L15.0001 12L15.0001 14Z" fill="white"/>
</svg>
